<mxfile host="Electron" agent="Mozilla/5.0 (Windows NT 10.0; Win64; x64) AppleWebKit/537.36 (KHTML, like Gecko) draw.io/27.0.9 Chrome/134.0.6998.205 Electron/35.4.0 Safari/537.36" version="27.0.9">
  <diagram name="Pagina-1" id="yVW8Uu7ja5tXnWj2crw_">
    <mxGraphModel dx="1295" dy="762" grid="1" gridSize="10" guides="1" tooltips="1" connect="1" arrows="0" fold="1" page="1" pageScale="1" pageWidth="1169" pageHeight="827" math="0" shadow="0">
      <root>
        <mxCell id="0" />
        <mxCell id="1" parent="0" />
        <mxCell id="sYsVu_0ef8eUR9bo2hsy-1" value="High Level Architecture" style="text;html=1;align=left;verticalAlign=middle;whiteSpace=wrap;rounded=0;fontStyle=1;fontSize=24;" vertex="1" parent="1">
          <mxGeometry x="10" y="10" width="310" height="30" as="geometry" />
        </mxCell>
        <mxCell id="sYsVu_0ef8eUR9bo2hsy-2" value="" style="rounded=0;whiteSpace=wrap;html=1;fillColor=none;dashed=1;" vertex="1" parent="1">
          <mxGeometry x="20" y="140" width="180" height="500" as="geometry" />
        </mxCell>
        <mxCell id="sYsVu_0ef8eUR9bo2hsy-3" value="&lt;font style=&quot;font-size: 16px;&quot;&gt;&lt;b&gt;Sources&lt;/b&gt;&lt;/font&gt;" style="rounded=0;whiteSpace=wrap;html=1;fontSize=24;fillColor=default;strokeColor=none;" vertex="1" parent="1">
          <mxGeometry x="52.5" y="130" width="115" height="20" as="geometry" />
        </mxCell>
        <mxCell id="sYsVu_0ef8eUR9bo2hsy-4" value="" style="rounded=0;whiteSpace=wrap;html=1;fillColor=none;dashed=1;" vertex="1" parent="1">
          <mxGeometry x="260" y="140" width="630" height="500" as="geometry" />
        </mxCell>
        <mxCell id="sYsVu_0ef8eUR9bo2hsy-5" value="&lt;font style=&quot;font-size: 16px;&quot;&gt;&lt;b&gt;Data Warehouse&lt;/b&gt;&lt;/font&gt;" style="rounded=0;whiteSpace=wrap;html=1;fontSize=24;fillColor=default;strokeColor=none;" vertex="1" parent="1">
          <mxGeometry x="505" y="120" width="180" height="30" as="geometry" />
        </mxCell>
        <mxCell id="sYsVu_0ef8eUR9bo2hsy-6" value="" style="rounded=0;whiteSpace=wrap;html=1;fillColor=none;dashed=1;" vertex="1" parent="1">
          <mxGeometry x="950" y="140" width="160" height="500" as="geometry" />
        </mxCell>
        <mxCell id="sYsVu_0ef8eUR9bo2hsy-7" value="&lt;font style=&quot;font-size: 16px;&quot;&gt;&lt;b&gt;Consume&lt;/b&gt;&lt;/font&gt;" style="rounded=0;whiteSpace=wrap;html=1;fontSize=24;fillColor=default;strokeColor=none;" vertex="1" parent="1">
          <mxGeometry x="977.5" y="130" width="105" height="20" as="geometry" />
        </mxCell>
        <mxCell id="sYsVu_0ef8eUR9bo2hsy-9" value="Bronze Layer" style="rounded=0;whiteSpace=wrap;html=1;fillColor=#ffe6cc;strokeColor=#d79b00;fontStyle=1;fontSize=14;" vertex="1" parent="1">
          <mxGeometry x="270" y="160" width="170" height="30" as="geometry" />
        </mxCell>
        <mxCell id="sYsVu_0ef8eUR9bo2hsy-10" value="" style="rounded=0;whiteSpace=wrap;html=1;strokeColor=#FFCE9F;fillColor=none;" vertex="1" parent="1">
          <mxGeometry x="270" y="200" width="170" height="414" as="geometry" />
        </mxCell>
        <mxCell id="sYsVu_0ef8eUR9bo2hsy-11" value="Silver Layer" style="rounded=0;whiteSpace=wrap;html=1;fillColor=#f5f5f5;strokeColor=#666666;fontStyle=1;fontSize=14;fontColor=#333333;" vertex="1" parent="1">
          <mxGeometry x="490" y="160" width="170" height="30" as="geometry" />
        </mxCell>
        <mxCell id="sYsVu_0ef8eUR9bo2hsy-12" value="" style="rounded=0;whiteSpace=wrap;html=1;strokeColor=#959595;fillColor=none;fontColor=#333333;" vertex="1" parent="1">
          <mxGeometry x="490" y="200" width="170" height="420" as="geometry" />
        </mxCell>
        <mxCell id="sYsVu_0ef8eUR9bo2hsy-13" value="Gold Layer" style="rounded=0;whiteSpace=wrap;html=1;fillColor=#fff2cc;strokeColor=#d6b656;fontStyle=1;fontSize=14;" vertex="1" parent="1">
          <mxGeometry x="710" y="160" width="170" height="30" as="geometry" />
        </mxCell>
        <mxCell id="sYsVu_0ef8eUR9bo2hsy-14" value="" style="rounded=0;whiteSpace=wrap;html=1;strokeColor=#d6b656;fillColor=none;" vertex="1" parent="1">
          <mxGeometry x="710" y="207" width="170" height="413" as="geometry" />
        </mxCell>
        <mxCell id="sYsVu_0ef8eUR9bo2hsy-20" value="" style="group" vertex="1" connectable="0" parent="1">
          <mxGeometry x="90" y="200" width="65" height="60" as="geometry" />
        </mxCell>
        <mxCell id="sYsVu_0ef8eUR9bo2hsy-15" value="&lt;b&gt;CRM&lt;/b&gt;" style="image;aspect=fixed;html=1;points=[];align=center;fontSize=12;image=img/lib/azure2/general/Folder_Blank.svg;" vertex="1" parent="sYsVu_0ef8eUR9bo2hsy-20">
          <mxGeometry width="49.20497014906811" height="39.93261657934435" as="geometry" />
        </mxCell>
        <mxCell id="sYsVu_0ef8eUR9bo2hsy-16" value="" style="image;aspect=fixed;html=1;points=[];align=center;fontSize=12;image=img/lib/azure2/general/File.svg;" vertex="1" parent="sYsVu_0ef8eUR9bo2hsy-20">
          <mxGeometry x="43.9331721587088" y="18.023999999999997" width="19.447184274140703" height="23.959569947606607" as="geometry" />
        </mxCell>
        <mxCell id="sYsVu_0ef8eUR9bo2hsy-22" value="" style="group" vertex="1" connectable="0" parent="1">
          <mxGeometry x="90" y="280" width="65" height="64" as="geometry" />
        </mxCell>
        <mxCell id="sYsVu_0ef8eUR9bo2hsy-18" value="&lt;b&gt;ERP&lt;/b&gt;" style="image;aspect=fixed;html=1;points=[];align=center;fontSize=12;image=img/lib/azure2/general/Folder_Blank.svg;" vertex="1" parent="sYsVu_0ef8eUR9bo2hsy-22">
          <mxGeometry width="53.02042463252953" height="43.031069266980495" as="geometry" />
        </mxCell>
        <mxCell id="sYsVu_0ef8eUR9bo2hsy-19" value="" style="image;aspect=fixed;html=1;points=[];align=center;fontSize=12;image=img/lib/azure2/general/File.svg;" vertex="1" parent="sYsVu_0ef8eUR9bo2hsy-22">
          <mxGeometry x="43.7121721587088" y="20.468571428571426" width="18.710831011624553" height="23.05235853588241" as="geometry" />
        </mxCell>
        <mxCell id="sYsVu_0ef8eUR9bo2hsy-27" value="&lt;b&gt;Object Type:&lt;/b&gt; CSV Files&lt;div&gt;&lt;br&gt;&lt;div&gt;&lt;b&gt;Interface:&lt;/b&gt; Files in Folders&lt;/div&gt;&lt;div&gt;&lt;br&gt;&lt;/div&gt;&lt;/div&gt;" style="text;html=1;align=center;verticalAlign=middle;whiteSpace=wrap;rounded=0;" vertex="1" parent="1">
          <mxGeometry x="35" y="366" width="150" height="82" as="geometry" />
        </mxCell>
        <mxCell id="sYsVu_0ef8eUR9bo2hsy-28" value="Raw Data" style="html=1;verticalLabelPosition=bottom;align=center;labelBackgroundColor=#ffffff;verticalAlign=top;strokeWidth=2;strokeColor=#d79b00;shadow=0;dashed=0;shape=mxgraph.ios7.icons.data;fillColor=#ffe6cc;" vertex="1" parent="1">
          <mxGeometry x="330" y="227" width="60" height="73" as="geometry" />
        </mxCell>
        <mxCell id="sYsVu_0ef8eUR9bo2hsy-29" value="Cleaned, Standardized Data" style="html=1;verticalLabelPosition=bottom;align=center;labelBackgroundColor=#ffffff;verticalAlign=top;strokeWidth=2;strokeColor=#666666;shadow=0;dashed=0;shape=mxgraph.ios7.icons.data;fillColor=#f5f5f5;fontColor=#333333;" vertex="1" parent="1">
          <mxGeometry x="550" y="227" width="60" height="73" as="geometry" />
        </mxCell>
        <mxCell id="sYsVu_0ef8eUR9bo2hsy-30" value="Business- Ready Data" style="html=1;verticalLabelPosition=bottom;align=center;labelBackgroundColor=#ffffff;verticalAlign=top;strokeWidth=2;strokeColor=#d6b656;shadow=0;dashed=0;shape=mxgraph.ios7.icons.data;fillColor=#fff2cc;" vertex="1" parent="1">
          <mxGeometry x="765" y="227" width="60" height="73" as="geometry" />
        </mxCell>
        <mxCell id="sYsVu_0ef8eUR9bo2hsy-33" value="" style="shape=mxgraph.arrows.arrow_right;html=1;verticalLabelPosition=bottom;verticalAlign=top;strokeWidth=1;strokeColor=#6c8ebf;fillColor=#dae8fc;" vertex="1" parent="1">
          <mxGeometry x="210" y="260" width="42.5" height="30" as="geometry" />
        </mxCell>
        <mxCell id="sYsVu_0ef8eUR9bo2hsy-34" value="" style="shape=mxgraph.arrows.arrow_right;html=1;verticalLabelPosition=bottom;verticalAlign=top;strokeWidth=1;strokeColor=#6c8ebf;fillColor=#dae8fc;" vertex="1" parent="1">
          <mxGeometry x="447.5" y="260" width="42.5" height="30" as="geometry" />
        </mxCell>
        <mxCell id="sYsVu_0ef8eUR9bo2hsy-35" value="" style="shape=mxgraph.arrows.arrow_right;html=1;verticalLabelPosition=bottom;verticalAlign=top;strokeWidth=1;strokeColor=#6c8ebf;fillColor=#dae8fc;" vertex="1" parent="1">
          <mxGeometry x="667.5" y="260" width="40" height="30" as="geometry" />
        </mxCell>
        <mxCell id="sYsVu_0ef8eUR9bo2hsy-36" value="&lt;b&gt;Object Type:&lt;/b&gt;&amp;nbsp;Tables&lt;div&gt;&lt;br&gt;&lt;div&gt;&lt;b&gt;Load:&lt;/b&gt;&amp;nbsp;&lt;br&gt;&lt;ul&gt;&lt;li&gt;Batch Processing&lt;/li&gt;&lt;li&gt;Full Load&amp;nbsp;&lt;/li&gt;&lt;li&gt;Truncate &amp;amp; Insert&lt;br&gt;&lt;/li&gt;&lt;/ul&gt;&lt;div&gt;No&lt;b&gt; Transformations&lt;/b&gt;&lt;/div&gt;&lt;div&gt;&lt;b&gt;&lt;br&gt;&lt;/b&gt;&lt;div&gt;&lt;b&gt;Data Model:&lt;/b&gt; None (as-it-is)&lt;/div&gt;&lt;/div&gt;&lt;/div&gt;&lt;/div&gt;" style="text;html=1;align=left;verticalAlign=middle;whiteSpace=wrap;rounded=0;" vertex="1" parent="1">
          <mxGeometry x="285" y="360" width="150" height="180" as="geometry" />
        </mxCell>
        <mxCell id="sYsVu_0ef8eUR9bo2hsy-37" value="&lt;b&gt;Object Type:&lt;/b&gt;&amp;nbsp;Tables&lt;div&gt;&lt;br&gt;&lt;div&gt;&lt;b&gt;Load:&lt;/b&gt;&amp;nbsp;&lt;br&gt;&lt;ul&gt;&lt;li&gt;Batch Processing&lt;/li&gt;&lt;li&gt;Full Load&amp;nbsp;&lt;/li&gt;&lt;li&gt;Truncate &amp;amp; Insert&lt;br&gt;&lt;/li&gt;&lt;/ul&gt;&lt;div&gt;&lt;b&gt;Transformations:&lt;/b&gt;&lt;br&gt;&lt;ul&gt;&lt;li&gt;Data Cleansing&lt;/li&gt;&lt;li&gt;Data Standardization&lt;/li&gt;&lt;li&gt;Data Normalisation&lt;/li&gt;&lt;li&gt;Derived Columns&lt;/li&gt;&lt;li&gt;Data Enrichment&lt;/li&gt;&lt;/ul&gt;&lt;div&gt;&lt;b&gt;Data Model:&lt;/b&gt; None (as-it-is)&lt;/div&gt;&lt;/div&gt;&lt;/div&gt;&lt;/div&gt;" style="text;html=1;align=left;verticalAlign=middle;whiteSpace=wrap;rounded=0;" vertex="1" parent="1">
          <mxGeometry x="495" y="360" width="165" height="256" as="geometry" />
        </mxCell>
        <mxCell id="sYsVu_0ef8eUR9bo2hsy-38" value="&lt;b&gt;Object Type:&lt;/b&gt;&amp;nbsp;Tables&lt;div&gt;&lt;br&gt;&lt;/div&gt;&lt;div&gt;No &lt;b&gt;Load&lt;/b&gt;&lt;/div&gt;&lt;div&gt;&lt;br&gt;&lt;div&gt;&lt;div&gt;&lt;div&gt;&lt;b&gt;Transformations:&lt;/b&gt;&lt;br&gt;&lt;ul&gt;&lt;li&gt;Data Integrations&lt;/li&gt;&lt;li&gt;Aggregations&lt;/li&gt;&lt;li&gt;Business Logics&lt;/li&gt;&lt;/ul&gt;&lt;div&gt;&lt;b&gt;Data Model:&lt;/b&gt;&lt;/div&gt;&lt;/div&gt;&lt;/div&gt;&lt;/div&gt;&lt;/div&gt;&lt;div&gt;&lt;ul&gt;&lt;li&gt;Star Schema&lt;/li&gt;&lt;li&gt;Flat Table&lt;/li&gt;&lt;li&gt;Aggregated Table&lt;/li&gt;&lt;/ul&gt;&lt;/div&gt;" style="text;html=1;align=left;verticalAlign=middle;whiteSpace=wrap;rounded=0;" vertex="1" parent="1">
          <mxGeometry x="720" y="360" width="150" height="250" as="geometry" />
        </mxCell>
        <mxCell id="sYsVu_0ef8eUR9bo2hsy-40" value="" style="line;strokeWidth=2;html=1;fillColor=#f5f5f5;fontColor=#333333;strokeColor=#666666;" vertex="1" parent="1">
          <mxGeometry x="497.5" y="350" width="160" height="10" as="geometry" />
        </mxCell>
        <mxCell id="sYsVu_0ef8eUR9bo2hsy-43" value="" style="line;strokeWidth=2;html=1;fillColor=#fff2cc;strokeColor=#d6b656;" vertex="1" parent="1">
          <mxGeometry x="720" y="350" width="140" height="10" as="geometry" />
        </mxCell>
        <mxCell id="sYsVu_0ef8eUR9bo2hsy-44" value="" style="line;strokeWidth=2;html=1;fillColor=#ffe6cc;strokeColor=#d79b00;" vertex="1" parent="1">
          <mxGeometry x="280" y="350" width="160" height="10" as="geometry" />
        </mxCell>
        <mxCell id="sYsVu_0ef8eUR9bo2hsy-45" style="edgeStyle=orthogonalEdgeStyle;rounded=0;orthogonalLoop=1;jettySize=auto;html=1;exitX=0.5;exitY=1;exitDx=0;exitDy=0;" edge="1" parent="1" source="sYsVu_0ef8eUR9bo2hsy-7" target="sYsVu_0ef8eUR9bo2hsy-7">
          <mxGeometry relative="1" as="geometry" />
        </mxCell>
        <mxCell id="sYsVu_0ef8eUR9bo2hsy-47" value="" style="shape=mxgraph.arrows.arrow_right;html=1;verticalLabelPosition=bottom;verticalAlign=top;strokeWidth=1;strokeColor=#6c8ebf;fillColor=#dae8fc;" vertex="1" parent="1">
          <mxGeometry x="900" y="260" width="50" height="30" as="geometry" />
        </mxCell>
        <mxCell id="sYsVu_0ef8eUR9bo2hsy-48" value="BI &amp;amp; Reporting" style="image;aspect=fixed;html=1;points=[];align=center;fontSize=12;image=img/lib/azure2/power_platform/PowerBI.svg;" vertex="1" parent="1">
          <mxGeometry x="1004.5" y="212" width="51" height="68" as="geometry" />
        </mxCell>
        <mxCell id="sYsVu_0ef8eUR9bo2hsy-51" value="Ad-Hoc &#xa;SQL Queries" style="image;aspect=fixed;points=[];align=center;fontSize=12;image=img/lib/azure2/ai_machine_learning/Anomaly_Detector.svg;imageBackground=none;labelBackgroundColor=none;" vertex="1" parent="1">
          <mxGeometry x="1004.5" y="332" width="48" height="48" as="geometry" />
        </mxCell>
        <mxCell id="sYsVu_0ef8eUR9bo2hsy-52" value="Machine Learning" style="editableCssRules=.*;html=1;shape=image;verticalLabelPosition=bottom;labelBackgroundColor=#ffffff;verticalAlign=top;aspect=fixed;imageAspect=0;image=data:image/svg+xml,PHN2ZyB4bWxucz0iaHR0cDovL3d3dy53My5vcmcvMjAwMC9zdmciIHhtbG5zOnY9Imh0dHBzOi8vdmVjdGEuaW8vbmFubyIgd2lkdGg9IjE2Ljk3OTk5OTU0MjIzNjMyOCIgaGVpZ2h0PSIyMCIgdmlld0JveD0iMCAwIDE2Ljk3OTk5OTU0MjIzNjMyOCAyMCIgc3R5bGU9ImNvbG9yLXNjaGVtZTogbGlnaHQgZGFyazsiPiYjeGE7CTxzdHlsZSB0eXBlPSJ0ZXh0L2NzcyI+LnN0MCB7IGZpbGw6IGxpZ2h0LWRhcmsocmdiKDUxLCAyNTUsIDUxKSwgcmdiKDE4LCAxOCwgMTgpKTsgfSAuc3QxIHsgZmlsbDogbGlnaHQtZGFyayhyZ2IoMTAyLCAyMDQsIDApLCByZ2IoMTgsIDE4LCAxOCkpOyB9IC5zdDIgeyBmaWxsOiBsaWdodC1kYXJrKHJnYigyNTUsIDUxLCAyNTUpLCByZ2IoMTgsIDE4LCAxOCkpOyB9IDwvc3R5bGU+JiN4YTsJPGcgY2xhc3M9InN0MCI+JiN4YTsJCTxwYXRoIGQ9Ik04LjQ5IDEwLjI5TC4yNCA1LjM1IDguNDkuNThsOC4yNCA0LjY3ek0xLjc2IDUuMzZsNi43MiA0IDYuNzItNC4xMS02LjcxLTMuNzh6Ii8+JiN4YTsJCTxwYXRoIGQ9Ik04LjQ5IDE5LjQ0TC4yMSAxMy44OSA4LjQ5IDkuM2w4LjE1IDQuNjR6bS02LjgtNS41bDYuOCA0LjU2IDYuNy00LjUtNi43LTMuODJ6Ii8+JiN4YTsJPC9nPiYjeGE7CTxnIGNsYXNzPSJzdDEiPiYjeGE7CQk8cGF0aCBkPSJNLjYxMyA1LjUwMmwuNjc1LS4zNzEgNy40NzcgMTMuNi0uNjc1LjM3MXoiLz4mI3hhOwkJPHBhdGggZD0iTTguMTk0IDE4LjgyNmw3LjMwMS0xMy41NTkuNjc4LjM2NS03LjMwMSAxMy41NTl6TS43MTYgMTMuNjg3TDguMDk2LjkwNGwuNjY3LjM4NS03LjM4IDEyLjc4M3oiLz4mI3hhOwkJPHBhdGggZD0iTTguMTk0IDEuMjE0bC42NjktLjM4MSA3LjQwNSAxMi45ODctLjY2OS4zODF6Ii8+JiN4YTsJCTxwYXRoIGQ9Ik04LjEzLjk2aC43N1YxOC45aC0uNzd6TS41NSA1LjQzaC43N3Y4LjY2SC41NXptMTQuOTctLjA5aC43N1YxNGgtLjc3eiIvPiYjeGE7CTwvZz4mI3hhOwk8ZyBjbGFzcz0ic3QyIj4mI3hhOwkJPGNpcmNsZSBjeD0iOC41MiIgY3k9IjEuMDciIHI9IjEuMDciLz4mI3hhOwkJPGNpcmNsZSBjeD0iMTUuOTEiIGN5PSI1LjM0IiByPSIxLjA3Ii8+JiN4YTsJCTxjaXJjbGUgY3g9IjEuMDciIGN5PSI1LjM0IiByPSIxLjA3Ii8+JiN4YTsJCTxjaXJjbGUgY3g9IjguNTIiIGN5PSI5LjkzIiByPSIxLjY4Ii8+JiN4YTsJCTxjaXJjbGUgY3g9IjE1LjkxIiBjeT0iMTMuOTQiIHI9IjEuMDciLz4mI3hhOwkJPGNpcmNsZSBjeD0iMS4wNyIgY3k9IjEzLjk0IiByPSIxLjA3Ii8+JiN4YTsJCTxjaXJjbGUgY3g9IjguNTIiIGN5PSIxOC45MyIgcj0iMS4wNyIvPiYjeGE7CQk8cGF0aCBkPSJNOC40OSAxMC4yOUwuMjQgNS4zNSA4LjQ5LjU4bDguMjQgNC42N3pNMS43NiA1LjM2bDYuNzIgNCA2LjcyLTQuMTEtNi43MS0zLjc4eiIvPiYjeGE7CQk8cGF0aCBkPSJNOC40OSAxOS40NEwuMjEgMTMuODkgOC40OSA5LjNsOC4xNSA0LjY0em0tNi44LTUuNWw2LjggNC41NiA2LjctNC41LTYuNy0zLjgyeiIvPiYjeGE7CQk8cGF0aCBkPSJNLjYxMyA1LjUwMmwuNjc1LS4zNzEgNy40NzcgMTMuNi0uNjc1LjM3MXoiLz4mI3hhOwkJPHBhdGggZD0iTTguMTk0IDE4LjgyNmw3LjMwMS0xMy41NTkuNjc4LjM2NS03LjMwMSAxMy41NTl6TS43MTYgMTMuNjg3TDguMDk2LjkwNGwuNjY3LjM4NS03LjM4IDEyLjc4M3oiLz4mI3hhOwkJPHBhdGggZD0iTTguMTk0IDEuMjE0bC42NjktLjM4MSA3LjQwNSAxMi45ODctLjY2OS4zODF6Ii8+JiN4YTsJCTxwYXRoIGQ9Ik04LjEzLjk2aC43N1YxOC45aC0uNzd6TS41NSA1LjQzaC43N3Y4LjY2SC41NXptMTQuOTctLjA5aC43N1YxNGgtLjc3eiIvPiYjeGE7CTwvZz4mI3hhOwk8ZyBjbGFzcz0ic3QwIj4mI3hhOwkJPGNpcmNsZSBjeD0iOC41MiIgY3k9IjEuMDciIHI9IjEuMDciLz4mI3hhOwkJPGNpcmNsZSBjeD0iMTUuOTEiIGN5PSI1LjM0IiByPSIxLjA3Ii8+JiN4YTsJCTxjaXJjbGUgY3g9IjEuMDciIGN5PSI1LjM0IiByPSIxLjA3Ii8+JiN4YTsJCTxjaXJjbGUgY3g9IjguNTIiIGN5PSI5LjkzIiByPSIxLjY4Ii8+JiN4YTsJCTxjaXJjbGUgY3g9IjE1LjkxIiBjeT0iMTMuOTQiIHI9IjEuMDciLz4mI3hhOwkJPGNpcmNsZSBjeD0iMS4wNyIgY3k9IjEzLjk0IiByPSIxLjA3Ii8+JiN4YTsJCTxjaXJjbGUgY3g9IjguNTIiIGN5PSIxOC45MyIgcj0iMS4wNyIvPiYjeGE7CTwvZz4mI3hhOzwvc3ZnPg==;" vertex="1" parent="1">
          <mxGeometry x="993" y="470" width="71" height="83.53" as="geometry" />
        </mxCell>
        <mxCell id="sYsVu_0ef8eUR9bo2hsy-53" value="" style="shape=image;verticalLabelPosition=bottom;labelBackgroundColor=none;verticalAlign=top;aspect=fixed;imageAspect=0;image=data:image/png,iVBORw0KGgoAAAANSUhEUgAAAZ0AAAB6CAMAAABTN34eAAABWVBMVEX///8iHh/39/cAAAAdGBkJAAAfGxwXEhPz8/O+vb22tbVqaGkWEBHg3+BBPj4hHh+ZmJjv7+9dW1wQCQtIRkY4NDWDgoIoJCWvt8D4/f3FxMSKiInV1dX49/fEydDl5eVVU1Sop6cvKyzN0da5v8fT0tLX2t58entycHGioaGSkZH03dxEQUKJl6Wsq6w0MDHkMifsZlvyvbr16urxrKfvYVGiq7aWoa6rs72+ACTJTl/HABXRUV3ZYWnzzcuiABy1OFakACvmPjPoTULFKkDsfXbwpqHdJijywL3cSk/019Wcbn6hSF7Hsru0GECvACnUiZbkvMTDO1LSdIHfoarIpK7UlJ/FL0TSaHXGBCTJESrMLEDIAA7VO0bgg4rRSFXheX3WAAnfXWHGX3PhgYarABvMe43ZMzm8TWbfAADhsrzrcGnTjZzvmZTreXPIan7vkYq0I06gAAj+iH/iAAAXkUlEQVR4nO1d/VvaSLSGTL5AQgkBIUAI8qWAooig1q21UIv13tvWrbutWq12a+3WdWv7//9w58yEJHyKlm59NG+fpwIJQ5g355z3nDMJLpcDBw4cOHDgwIEDBw4cOHDgwIEDBw4cOHDgwIEDBw4cOBgM5lcfgINBYPL5jEPP7YSUzMiaqP/qw3DQCzmZzYsMRuZXH4mDbuSjWZ2hyGi/+mAc2KFl6iY3jCY5ru0WgUku1yVGa7PDyI5ruz3ILC/XsyvRZCavywwhyVFttwVyfW5FTiZlKZPFoBRJ0q8+KgcE+txcVNTEaAYbjSjr+UwmgxlyXNutgPY/y3VQ0TKmB/MDbk2UZSkv/+oDcwD4/L//p6kqw+hAjyEKJMap5twOVF+83Hi1U2XUfJbSI+bzDjW3Bpiep6urv7/e/cObYVRVzzjJzm1C9cXvX3YfYoZWnz48+vOP6q8+HgcdqP7+dFut7r55+2bv3dra/vu3rxZLt4YjKSf+6kP4xdAeru6o1YOqVtp59fb9/hrG3sFvr3fXS9cvuOmSbTYZUhPSQ4GbHpnuR6h40zffGTxcXVffHqk47qhiaX337OwMc/Tu3d7B++Pd9WvZkYCC1pNphPD/HhS56XH5uXLCyYxdv+2XvhxUQbOp6uLh0fYh5ujo0eEe2NH+wdvd9VGtyM0iczplhfXBX+9NJziBpsnfyQnjhftaPH//vrS/hfMetfSotasyh1vYjBixtLN7/OZgf3VvdfXhn9ujjOOOsJPtx0Vf2vdDBxVDU/BHRCn4oxUCheL9VJTV/aNHx5idxdbhNvZwx/CYWJKqrj/aOzgAgp6+/nKll+NDKWQUGhg2OKt0bGR6IrxoWQNjpllae7cYKpMtPuItp2Izk97i/UzG1tcenVWZo5MPVbCgZ4eawU7paP/9zqNX668evlw9PX35185w78IGPcgQAVMolwJ29CCxAFc5xPrC+GE5JcdCEeztpOl5hU95yMZYSvCFEvDIE3Qr6Wkd3hcS/MGgNpHiI8HglFZOTJbLucTPm4LbjItWa+v45Jj0rtXFVon8LX1sne1q2sEO9nOl3b9enp6evvhUGjIKm3KFefow7XeFgB0Jga9jUsgfL6ZCLlccxVEKM+FBaDoQd5OtHjRfLIa9+NEMmo8XJ5CSw1rPz4ZTIS0Y4iOpUEErSxNB+b6yo521zlofGeLR1PWTdezfqhetk6Oqqm6vUa4wQZ9fYnzeGTgKZmcKwSzjCffa2ZlBcXgVe7244ovhRzoXgSCCWcPPwiy4Q+y1CmgGdouhec2KO74U/AnECrFA4X56Npdr6V2rdbEuQk1UXf97S9WWzk4+bMOzIyrnKEGvXrx88nhjED+YHYb1w6PZiGZjR6KRHRCnSiyOqE+TQINHDNGtRVj6YBI4M+KOSOMOE/DG7qkqwNBardbCQnNzsQrsrJfOT1pLGpiSeHhsdrVxJNK+bDx58vhzf/+G2XEVUc7lykH4sdgpUIMCGLSEOON5OMJgy5ogWkIyNDQmJt7NDja8+9zY+LjQbCxgNM6XlhY2GyfnJermFk92Vct2dj59fvHtycvHj//pNwawI4M1BDnZzs4kMgNGnD6cdxvPg5zoElMIzejAR4G+SGjqZudeY+vvxer6RaUBaDYaSyrlRPuwT8OOKoJyO914tf1148u3x483+pgPsIMtQadGYLEz3cuOIR5cKQUUtCeEuAS1OJfLYacX2skFTm+00rPzJmBznUgEdevkEdR4qjuvn66tPtwtaerO4y9q9Z8nj5986RmDsCOheJyUDOyerdzexWAnhYy0JuKnfws4NEnIKAt4wIhMVeCwg9G8VGkth7DTaFQWcdzRnmP9Jm59PFhb+223BIRVv21g3a1ubzx+/Gf3EIQdV9DNkwm1qwJ/exeDnYJR3/SYdU73vMvlRzTuB5HerdnuO/7dJL7sWbNSqyxVsHdbqC3iqPNh++Lw3drhq20qt5mvp18Ii+Knl48/dQ1B2YkhEAZ2drBrC+L5lqZMdrQwCoBq5rAocMUJFxNESuN3itNEfxuezRX2JZxeuuviHM+6eIF9Wu1SrS4Sfs6bOA06aT3aEg1loO6efm5rhC8vvr/qHAKFyJ8wtZQw1KiNWuYMQukI6Oq2QND9iAvzyA8ukGxLgyQrI+QOI0Jo23awmSFh+ud//VuOZ+c4vGw2L7Wt5iIONSLmp4FlduvwqKSaqm3n5ZOSKa+3v33vdG4xYjMuY0VcDLQz46FPEsXpSS82AcnTtoNYfDoeo/sH8DZaI5KnJqcD9B2i10hvPJOT97RGYMOzfzE5tSVGvayVaJENBFzrbL1NDUbpzemu9VQtbXwfXDhwME48u6ye17aw/VQuYearz2pYGyy07PSID0+/Mjao1Y3Ht6bNfbdxsXlegf7BYm0dU7RUIdJtsYn52WrT83r1YZXpomfjVx/3/cBmk5QHxH//1bSt82btcqnZ2FKrx5ieRVo22N17U7L5NUiPtO0XPboaBxtdyiUkfVjpRdSlRE7Sx7GqQ9QT8Gl3e4FIrQYuTN2qbW1v1mqX2+J5AzIgdbHV2idbdlafbqsGLWJp+8s/Xz9vfPu28bVrHKmYcnMIg1PmJwr9Cpe6d8bP0l3Y2WlPn2mV4vFi3Nv7ei9yk7MCHUrwz3jvrPKuNnGao6ni5vlFpQaVgovmOW33bD9fO8M2UzrA5GD1Vt3Z/fT525Pv31/89c9Oz8KdRBDPE++m4PHE9citWFBBPtbYhWd9iJ/sodCDFAWNUCPw+JFiHypyV+lZbNawxWAdXan9i9MbdatZM9yYWn307oMo/vampK3vvt54cfr99MnnP3f6yoEiJ7g7QBNTC7kQ6trDzStK98IoD3K7hQnXFWAmENs5EntX69jnl0u1WuXyvFJZwqmnWqo1Ta2mah/Xjo72Xr99urr6/fTF1y8D+6MTCE5k3ocdDUdtqIudSWM+WYXu4iNPec7fuXJnJHbkeeUBHQqPhBT8aTx/R9kpNbbV0matUrmApQVM9by5aJKjVtcP9/f399ZWf3+9M6xzPcORqY7MeGO5mKcwEUFCBztMiqNkKKE47BKbmgkjH7wkKDH7QKOwo/kFMlY47onFYp5iiuXYu8rORQV7sEvMDnVnl80lqtNwvFk6Plzb21s7eDvYZihgTrGfsvrLTCxlZ4fxEyYUPmALNDnqnlgu1zXSVexMAtNCxGO+IJfD6G6yU20squsV7NpqFyDPlprPjJ7OxfPWu3fv9h/tXsEMIM2CEOh0ZV6bKkgpwB6a7hJpCT+8zgo25zYCOxKcCsJs51iBuymrL2siFKc3S5VKFatqTA6hprZwcnJyeDTaYtAYnq8HyDNw+yT1e32E8gQxA7/1wgjsxBVQAfdipUFpYWmzuXReqWKr2Va3a89UDVPTWDhZeL40gtFQTGO/RXsIfREjfg/F+m2bAevhzHWko7Djx4bao/XuJj40m+fblyChq7XFamWp9KzSaCw0NhevU0ULwXwVBm4OQ3hBA1LMEER4axH21ezIPhCE96J2vfj3wjNxs0kWSG1ebFY2m41G83Lkxe0GYPr7+S2KMpiOMjlgq6TgyfaZfFzNjg7DcffBsVVPnm8z/zagBKqKl9C2vj41LljJgeerPHAr5o5ND8zl44p9tkdlZ5TrG5gxX7swYjlibLd9eP5Iq1YwOSqzjYNNo7G5daMvNDQSkKgz2LJcMhiP0r4SawR2QEj0D2L2T51MzUci4WC8U0gmMIwO4WQwOBFwiTl4qff9En41Z9HBeKZD6UjEHwx07Kvhd+foeJ5pPN4UFAoL5cBY5P3H52Lp7HkVugaNhYXKtWKNHUEcO9jZARtnsGTg3QM2Aibg3WHjydXsMBF+iKOkKKShCsfzrKCgsE1LilBcSOMH0ixSBMGHxAR+pU9JUCYvtw2aKbqhQAjjcShk41tCnEJWu8bmkU8QFB5L+3J8Jnbjq/5s2N0vLbaOxdLHxslJ43JkhdaLKXI6D1DUPH+FxPKQd7eb1VdrNmCTF4acnpLfXoVj0YTpEESsKOBEiNGSH+8TXbNg9/F+38gMhrkIx1vjCcg6MyD1EoJw3QWtS6VduUQ5MC1N/bhPXd/bOmpdrD9qnZw8X/yh4Ugo4N19I3WCzP0wiSVyNtc3AjukMCGkBm6PkXos1PMQAn3n5sx9DXYkPNvYDlhgB3jg091jgApte88po6QB45EiPF2RD5DQA2Anhuh4LGYnh23HVfhhdkr7R+/Pjj+0TlrH6z861jTJ+dP9wqEXvj079N32sDVKJQf2dyupAUE6Bic6z/kDsUTCM81CCYlrT6fBTkjgOTYUDLFINgR6Vz0dbII1cuQy1HdZFCrgGOOdUEgCUDT3I+xEWB5FUkG/D3u2YjlX8E4N/wJXo7R/cLZ/uPfu8NUY1gcwaXp69TkqkGTC8IYNRKb2LqOwkyP1cF+6rzLQQWSwbFuFyBN2rwvs8H4PYoUCVH7EMkMdpdK1MKuID5orWB8mmJ+lQ1GKb/sCYIcNBjghQtp/MtatcsBbHpz6jYjqU1J7/u2HzYYiQRoCPEr1mA8ohisy+4BiiYqROgjkdMbnc3fdDpACjRGxOVmoRrDz9DFhJ5wSIrbDBE3JRzpdEU4CeB+JbBqcd0LI9kHwhdrnErDDz4Z9fnsUFH+4EViFm3zsvR3pit2RkOBJnBW4eNeMXVFHABDXb8zfaN23Mo3CCt9jrF6Ya1/HOQK5smE8IolDfEdV3JXmuyUNEOaj3rDIgcu2fycZWrJGvgXs4O38eHPj0tOXq6tviUob18ByiHRw3ArbOWOkjjAwUyXw2gLzaOxgGeUzmndd7g1iUpeDheGNISk7XaYMvtc3Y38F6oY0FDEkKnV+Brg9YwjKzqAi1Q0B5PxFFfQY70JdNGQq8ttPTTgzucHla4Dn+uzgeELNB+tl+zfI2cJ5GyL0TulFdoQdnu80b4mYm80dASWGLyxzvVFTAnMKGW99YMvVxoP1l6cbfxiecpz3/UqESDzAM2bLFX8SO3hPmoU88Ck2y5y0wrkFiBQcieOEnU47cVHnay9mgLEZg0AU66lLzPPtfIuwo4wj9zTx5fvGTj5JWZHz4xzZ5Y0oxL1xfvOETg+twdF3XTvuEDBFjro3NGGeYsSxdSuTSV87sBB2etLmbgPBlPAKmX2Gh0Sm+wQGtmlVnbAz1nr5Py92RTWTpR+ZHHNLkYlT9yaYjVISd4arApidtju6Bjs4ZhruTWlrJkhe2jxbIPrYuJwOChfd7BElp5iyS7fiEKTSvY2rGdOgiGbjxziHXz9VVUZLUnZ+wn1aJaoO2HaCF7q6VxZQrpfv2OChxirM0xkiTe3IrL8Ds2mzzEp46LEFknBZ9l3gzPSUlCXS/j7jUSVA8p3xhZ3qpx2ypiOZhVNFTP6MtRIBmo246diQ7F0x3SCR2qWua7IDK9uAHuMyOVIPx7loJ4hOI+MTdnpvfQVvM+I8xixr1Qm4QeNxFjup0Y92OLQ/ZEKOlslCwMm0TYcZuvL5uoix4G+MImIAgsrwe4H5baL7uuzANVik9lVov7s/bOz0eD7qftsOL2FpAmJG/WHZzhWFkNEhZmVjpZqUTeKxs8QfyFJGGu861wQ5vah3oBXoYQ0p0V4nvT47tPfK84yrvXKL6wMqI9s16m7AKcQZ0gvLPqNOQF93s33HI2fTONkR621yGDmblcVsxsXI+aRxw1ZtjMHNazWrZVKBHiYLiKAW2k+uzw6twZKTmVRl/B5vH5iKuh870NEzakkajiqm5i4QVdB3PDJpY2SHWZasn6TIZJPJbDKTtcxmrDcTBC1gpDDQQBkaOUGgmvNxE3ZkaCH5oJBJktHU4D0HsUPzGjIDQLBZsoazzDfk0tUxslNPWuSIefj5g4wtF2XGmvmQ0pmPWGPhik6z3tG6uwk7tLuachlpf5+40sZAdoAGqiyxfrOKDUDVkE7SGNnJLsNlHxoG9mbRaDSb7Sji5Mea+eRgyqn3liGltxRRD8AvWe2vG7FDitzwCTJ0x5TBxamB7DBuYwNkTJYfTii99Ws7xsaOPgemozF6JlqvZzMZTE/SftzjzXwSyGSHhoWBkQc7owe2rTdiZ8qsfM2yfWoBFgayQw4SHBrW0LbE1OUevnZubOyszMlYAmTr9WhSkhktG5WSURs9Y76Xe8zWESX9sK6qvQkxTdZTmafnjdghHT7ypsnhvb7B7EDEAhmTYjvqcKQ71bPqwER7XcGPQp5bztaXV4AZIgrqeU200aO3HzFdf2+Ioq2hhjMS0gTpJzs0uhTUOttvxI5Vj8iR5VkDT3bafeu7Cac8OC3TUWcbm5QAlYHJ4LhsJzO3nNGZ9u+ISfUMfoTpMcptriQxHdm6QPY6l8oywe7DBzduJhD4hPSR4kGv9cizsEWxnaxXs5Pr0VAkyBlzCpltn8VbxtccbDu0fpPAjq2jAUH6O33m3xhvXOwk55ZFra3Z5HqWPBQzUSoN8th0xLz953euE4Y0H9u1RAgKV+YiKEyCseygO/Z4SUPVN2sz1KvZSaCujpvot2l2mml1DSBPGP2BIexAXqYUZoSuCFkk6VrX6jk9ZRzB+NiZy5t6OrsiGo/y2SjmgckmpWSHaBOvo68ZnkXpgOW4EqmuCwtcEk+WHXDhsnUCiF7aDvKF7ZZH2Akycifsh5ZALArZxvGkO5wjZC5uJWRzbnJAQFezA7KcDYZ5s05gfDdYZ+zmgrawrMe5tvMbn2ebixqMaBmrZsDImWw2j/PSfOfJn7+OSCBdEI7zT5djsZh3MkTWk/n89hEl2mlmERsswuWE3mKKpdV/LtThQ2mljO8E67btA3KQ5YRU3IvHKU+HyTCc6e50gSXrG4IeyLPFhHeC5cxLh4axA58c6e3N0QVAgm8mpuMvJCfKQZ9iSpxxsSPOzc0ZpQLdXjMQJUhLs92B41p9H2AHpt7HkXsV0JbLfOeQYor2TXmBrAIkl+K6OxdWEvRlp+OK6gTdg1XIp9GLg5HNleXoAQicwkcirEIWCI5iO1qEHFH30jZ8RMTufcjnjkQEruOK5bEp6ujcHPmpN0YkigBsiBH1ZHQlSujpFFRycsAofaG57StZqY0Ee+id4rnOq9gxUx2Lkgn6Vpk7rqiW6AJPGwTUoXmleeNwgFd6NO1Wregb0o8hF0N0L0rAiLmV7vFSYvtYxsQOM0d9G850CDU4L02u1FeyeT0bzcvYuWVsM5C/XllHjqfbxkDOajTbLyEUA/PWHSCg4SxM9NZ34G4SPeA4uyEmZljbnSTw2RzsUtBaUUDm0cA6d7OxJsKq9EHtDFiyrqA+WbM8zXHWeBwKeexvse7p/CPQMT1ZRsuDBRFqljE1MuPKrCRJAMIEmaLt2g1tLRcIpul9USKp4sB8I1dMRfBe5IL2cKxfGqEXA/3QuZMYi6fc1EGmg/1u+SJPBSOofTR284SxBi6jnYKtfb+5HrA+z36NiAjvGM96qTxYj1zXXZganJhmdBE8nL4SNTSCJur5TB4I06/l2NrQZAlDviKPZfBeQeJDrroEZ4RPG9I0ZOj2sTWuNJ2M9/N+bAasZzkpZ+p1MBoj+4nWLaVNwhIY0U/+aSJmFi7y4H6MnjsHsY7pWc7I1k+PY3WdtJjBL+v5ZD6f/dk/RyRH2IFXYd9jJMG76Zag1utR0TIbPYPTUlFL/vxfVJaGVUbvL+QoiAOTn2hdN6wGmj5ZKMUxcvQ/uKtJjFwVI9yLC9uvA+BnOZrHkkDTMst58hvXEuQ9WCYY1Z3/4jCmaOHaoacbYnIZ5IGuyctJLOAy2fqKTSYw2f/mXgDFwX2F+w4dCKrX61JyJZrMW2U3CEVRnM7FPTHM0fDlzz8KctewjguhHJiQMyuYoTmc98gQd9qRSEvC2Rx3BSZdntTPPYKUwvO84NAzCNDKxgzVsf0QjqAlF4UNRVehKBeH3xTghyH6fYIgKOm7eWu1MQFHnmS0vryMo08mr2dIiQ3bDhOSBjfUxwONdm/u6g1XxwpRzwPI45jxz4EDBw4cOHDgwIEDBw4cOHDgwIGDe4n/B3+BjXOLALmUAAAAAElFTkSuQmCC;fontColor=none;noLabel=1;" vertex="1" parent="1">
          <mxGeometry x="260" y="100" width="135.41" height="40" as="geometry" />
        </mxCell>
      </root>
    </mxGraphModel>
  </diagram>
</mxfile>
